<svg width="483" height="239" viewBox="0 0 483 239" fill="none" xmlns="http://www.w3.org/2000/svg">
<g clip-path="url(#clip0_3_36)">
<path fill-rule="evenodd" clip-rule="evenodd" d="M392.596 154.668C392.566 154.668 392.535 154.667 392.506 154.667C392.477 154.667 392.448 154.667 392.421 154.667L392.506 154.667L392.596 154.668Z" fill="white"/>
<path d="M151.572 53.1135C137.87 33.4712 110.587 27.4671 90.5348 40.1925L90.5195 40.2022L63.0397 57.7893C53.3041 63.9063 46.5354 73.9108 44.5682 85.2707C43.2334 92.789 43.8825 100.55 46.5847 107.718C44.9483 111.086 43.7906 114.671 43.1644 118.392C41.1312 129.794 43.819 141.546 50.4658 150.895C64.2384 170.519 91.4238 176.585 111.515 163.835L123.468 156.229C122.493 167.075 126.665 177.225 135.299 182.321C147.673 189.624 164.706 183.888 174.194 169.545L185.775 171.01C194.681 181.418 219.115 188.137 247.519 186.885C251.412 186.713 255.217 186.399 258.906 185.956C259.077 185.982 259.251 186.004 259.427 186.023L259.721 186.054L259.753 186.056C260.784 189.669 263.791 192.681 267.966 193.282L273.879 194.237L274.139 194.265C278.389 194.714 282.502 192.454 284.349 188.593L285.141 187.293C286.992 186.985 288.812 186.412 290.531 185.534C292.728 187.847 295.425 189.19 297.943 190.003C298.5 190.196 298.988 190.31 299.361 190.382C299.635 190.434 299.863 190.466 300.011 190.485C300.097 190.495 300.177 190.504 300.225 190.51L300.273 190.515C302.931 190.796 305.539 190.044 307.623 188.443C308.066 188.103 308.456 187.747 308.796 187.394C309.295 187.525 309.794 187.615 310.282 187.667C311.916 187.839 313.296 187.527 313.418 187.499L313.427 187.498C313.64 187.454 313.842 187.406 314.025 187.36C315.959 187.78 317.956 188 320 188C320.841 188 321.674 187.963 322.498 187.89C323.955 190.954 326.803 193.308 330.391 193.993C332.914 194.475 335.399 194.055 337.516 192.961C340.974 197.858 347.734 199.1 352.714 195.717C357.693 192.334 359.029 185.593 355.751 180.573C357.549 179.009 358.854 176.853 359.336 174.33C359.415 173.915 359.47 173.5 359.502 173.088L361.016 172.788C362.514 172.672 364.013 172.248 365.407 171.494C366.818 173.415 368.859 174.893 371.333 175.582C377.199 177.213 383.277 173.78 384.908 167.914L388.34 155.573C390.054 154.988 391.407 154.685 392.143 154.669C392.198 154.668 392.296 154.667 392.421 154.667L392.506 154.667L392.596 154.668C392.687 154.668 392.768 154.669 392.825 154.67L392.889 154.67L392.904 154.671L392.971 154.671H393.038C395.985 154.671 398.932 153.929 401.506 152.131C403.985 150.4 405.363 148.213 406.141 146.657L406.243 146.452L406.335 146.243C407.12 144.465 408.134 141.936 408.953 139.735C409.363 138.634 409.76 137.518 410.068 136.56C410.219 136.09 410.381 135.558 410.516 135.035L410.525 135C410.597 134.723 410.92 133.492 410.92 132.093C410.92 132.041 410.92 131.99 410.919 131.939L411.682 131.466C415.404 130.01 418.671 127.72 420.973 124.349C423.474 120.688 424.183 116.708 424.183 113.303C424.183 111.131 423.882 103.34 419.58 95.7713C416.047 89.555 410.118 84.0781 401.151 81.6861L418.562 80.3851C423.794 79.9941 427.718 75.4357 427.327 70.2036C426.936 64.9715 422.378 61.047 417.146 61.438L405.518 62.3068C409.548 60.9866 412.33 57.0656 412.032 52.6406C411.68 47.4057 407.15 43.4479 401.915 43.8004L351.225 47.2143C348.427 47.4028 345.993 48.7849 344.388 50.8304C343.893 50.796 343.447 50.7969 343.067 50.8126L339.388 50.9651L338.129 47.5885C337.746 46.5166 337.047 45.0292 335.731 43.6514C334.275 42.1262 331.65 40.3865 328.076 40.5346C324.34 40.6894 321.864 42.7997 320.615 44.4026C319.487 45.8489 318.97 47.3068 318.729 48.0914L318.696 48.1995L317.665 51.8654L313.986 52.0179C312.719 52.0705 310.728 52.3492 308.723 53.5575C306.59 54.8432 303.695 57.8209 303.887 62.4731C303.897 62.7019 303.914 62.9254 303.938 63.1435L289.231 60.6612C288.192 60.4858 287.176 60.4551 286.196 60.5519C285.544 60.0016 284.91 59.5923 284.399 59.3127L284.382 59.3035L284.365 59.2943C282.203 58.1235 279.634 57.2249 277.67 56.6321L277.671 56.2606C277.676 51.3015 273.792 46.0965 267.554 46.0899L261.053 46.0831C255.444 46.0772 250.889 50.6225 250.883 56.2324L250.882 57.0579C250.309 56.5303 249.712 56.0982 249.137 55.7614C247.09 54.5627 244.944 54.2422 243.185 54.3447L242.897 54.3615L236.475 55.0385C232.582 55.3904 229.813 57.84 228.472 60.45C228.241 60.9004 228.053 61.3462 227.903 61.7806C227.81 61.7849 227.754 61.7887 227.752 61.7888C226.656 61.8526 225.391 62.1016 224.116 62.6679C224.074 62.559 224.031 62.452 223.987 62.3467C223.193 60.4613 221.958 59.153 221.072 58.4077L220.352 57.802L219.997 57.6072L218.263 56.3173L218.197 56.2702C216.947 55.3723 214.43 53.9682 211.057 54.2591C210.089 54.3425 209.209 54.555 208.42 54.8465C207.873 54.8101 207.301 54.8147 206.704 54.8662L205.993 54.9274L203.05 55.5706C202.109 55.7513 199.931 56.298 197.965 58.1374C197.463 58.6065 197.034 59.1 196.669 59.6076C196.618 59.6114 196.566 59.6155 196.515 59.6199C193.449 59.8842 190.506 61.2802 188.348 63.8455L188.305 63.8967L188.291 63.9134C187.925 60.5178 186.255 57.7993 184.364 55.9694C182.287 53.9603 179.553 52.6005 176.695 52.2317L176.643 52.2249L163.109 50.6308L162.675 50.6135C158.808 50.46 155.215 52.5116 153.368 55.8117C152.806 54.8926 152.207 53.9925 151.572 53.1135Z" fill="white"/>
<path d="M159.165 85.7284L156.466 82.1864C156.34 82.0163 156.248 81.8475 156.255 81.6826C156.265 81.4188 156.472 81.1959 156.942 81.0164C163.801 77.9532 169.068 70.0711 169.133 68.4224C169.149 68.0267 168.926 67.8197 168.432 67.7671L161.466 66.8958C161.104 66.8484 160.852 66.5412 160.867 66.1785L160.869 66.1125L161.58 60.6915C161.627 60.3301 161.935 60.0781 162.297 60.0925L162.363 60.0951L175.479 61.64C176.958 61.8308 178.95 63.231 178.862 65.4402C178.857 65.5721 178.82 65.6697 178.815 65.8016C177.731 73.9491 169.826 83.4107 160.901 86.0945C160.6 86.1817 160.333 86.2701 160.036 86.2583C159.739 86.2465 159.448 86.1029 159.165 85.7284ZM172.702 80.8498L175.563 77.0004C175.807 76.6798 176.107 76.5927 176.404 76.6045C176.668 76.6149 180.671 77.2694 184.632 79.8046C184.954 80.0155 185.11 80.2529 185.1 80.5167C185.092 80.7146 184.985 80.9085 184.844 81.134C183.999 82.4545 182.107 85.1866 181.193 86.5704C181.018 86.8277 180.816 86.9187 180.585 86.9096C180.387 86.9017 180.16 86.7936 180 86.6881C178.265 85.4633 174.566 82.9715 172.956 81.9168C172.699 81.7414 172.475 81.5674 172.485 81.3036C172.491 81.1717 172.563 81.0095 172.702 80.8498Z" fill="#FF3E00"/>
<path d="M218.886 80.1307L216.565 85.1004C216.457 85.3747 216.309 85.5862 216.013 85.6117C215.849 85.6258 215.646 85.5771 215.366 85.4025C212.846 83.8312 202.813 78.1048 199.854 77.598C199.854 77.598 196.643 80.6903 193.796 82.625C193.607 82.7406 193.415 82.8234 193.218 82.8404C192.725 82.8829 192.335 82.5853 189.008 78.9636C188.898 78.8406 188.849 78.6462 188.832 78.4489C188.809 78.1859 188.852 77.9172 189.002 77.7386C189.002 77.7386 193.52 72.5133 195.617 69.9476C196.068 69.4119 196.64 69.1308 197.33 69.0713C201.013 68.7538 213.951 75.5215 218.702 79.1528C218.845 79.273 218.958 79.4289 218.978 79.659C218.989 79.7905 218.971 79.9578 218.886 80.1307ZM214.957 66.823L213.224 68.6285C213.074 68.807 212.882 68.8898 212.751 68.9011C212.521 68.921 212.279 68.8093 212.098 68.6262L209.691 66.4489C209.51 66.2658 209.432 66.14 209.418 65.9756C209.398 65.7454 209.579 65.5311 209.735 65.4183L211.397 63.9502C211.55 63.8045 211.708 63.7245 211.873 63.7104C212.136 63.6877 212.41 63.7965 212.657 63.974L214.852 65.6065L214.956 65.6638C215.135 65.814 215.25 66.0027 215.264 66.1671C215.281 66.3644 215.167 66.573 214.957 66.823ZM208.617 68.595L206.494 68.9437L206.231 68.9663C205.771 69.006 205.527 68.8615 205.397 68.5083L204.411 65.9104C204.364 65.7488 204.32 65.6202 204.311 65.5215C204.275 65.0941 204.526 64.9399 204.918 64.873L207.421 64.326L207.52 64.3175C208.013 64.275 208.376 64.6412 208.511 65.0601L209.36 67.6036C209.401 67.6994 209.41 67.798 209.415 67.8638C209.449 68.2583 209.206 68.5111 208.617 68.595Z" fill="#FC6147"/>
<path d="M238.406 85.7773L236.82 65.3749C236.795 64.9467 236.935 64.5088 237.363 64.4839L243.671 63.8189L243.737 63.815C244.166 63.7901 244.607 63.9958 244.63 64.3911L245.298 75.8556C245.331 76.4157 245.439 76.5747 245.769 76.5555C246.065 76.5382 246.422 76.4183 250.221 75.2383C250.383 75.1958 250.544 75.1203 250.676 75.1126C250.94 75.0973 251.145 75.2175 251.364 75.5684C254.119 79.7382 254.16 79.8681 254.181 80.2305C254.198 80.527 254.049 80.8001 253.733 81.0499C249.665 84.4272 241.511 86.8856 239.568 86.9988C238.744 87.0468 238.45 86.535 238.406 85.7773ZM229.481 84.6444L224.656 83.5371C224.086 83.405 223.91 83.217 223.895 82.9534C223.883 82.7557 223.969 82.5194 224.083 82.2152C225.185 79.5726 226.661 74.8258 227.428 72.1036C227.591 71.4991 227.909 71.2822 228.304 71.2592C228.403 71.2534 228.535 71.2457 228.636 71.2729L234.289 72.4311C234.791 72.5341 235.171 72.8095 235.205 73.4025C235.315 75.2803 231.595 84.6204 230.046 84.7106C229.882 84.7202 229.715 84.6969 229.481 84.6444Z" fill="#FF3E00"/>
<path d="M267.514 84.6824L261.013 84.6755C260.65 84.6751 260.353 84.4108 260.354 84.0478L260.383 56.2288C260.383 55.8658 260.68 55.5692 261.043 55.5695L267.544 55.5764C267.907 55.5767 268.171 55.874 268.171 56.237L268.159 67.556L269.877 65.1818C270.109 64.8521 270.406 64.7534 270.736 64.7537C271.726 64.7548 276.971 66.0803 279.841 67.6343C280.204 67.8327 280.368 68.0638 280.368 68.3278C280.368 68.6248 280.236 68.8227 276.632 74.6929C276.467 74.9568 276.236 75.0555 276.005 75.0553C275.774 75.055 275.543 74.9558 275.378 74.8566C273.729 73.8319 270.332 72.0133 268.155 70.955L268.142 84.056C268.141 84.419 267.877 84.6827 267.514 84.6824Z" fill="#FC6147"/>
<path d="M149.391 172.241L142.919 173.578L142.854 173.588C142.495 173.644 142.189 173.391 142.106 173.07L141.869 171.971C141.385 172.079 140.868 172.193 140.379 172.269C140.085 172.314 139.792 172.36 139.493 172.373C139.102 172.433 138.698 172.195 138.572 171.814L136.737 167.089C136.695 167.029 136.68 166.931 136.674 166.899C136.609 166.475 136.952 166.321 137.115 166.296L137.246 166.276C139.529 165.922 141.923 164.349 141.589 162.196C141.407 161.022 140.465 159.9 138.418 157.679C136.772 155.897 135.94 154.189 135.692 152.591C135.339 150.309 136.257 148.263 137.909 146.638L137.233 143.57C137.172 143.179 137.382 142.812 137.774 142.751L144.24 141.382C144.599 141.326 144.966 141.536 145.059 141.923L145.258 142.994C146.824 142.751 147.704 142.615 147.978 143.307L149.9 147.951C149.948 148.044 149.958 148.109 149.968 148.175C150.034 148.598 149.635 148.827 149.505 148.847L149.309 148.878C147.124 149.216 145.066 150.37 145.369 152.327C145.546 153.468 146.456 154.596 148.498 156.784C150.176 158.561 151.078 160.291 151.326 161.889C151.685 164.205 150.772 166.283 149.163 167.969L149.899 171.428L149.909 171.493C149.965 171.851 149.712 172.158 149.391 172.241Z" fill="#FC6147"/>
<path d="M164.357 148.177C164.912 150.385 163.57 152.628 161.362 153.183C159.122 153.746 156.879 152.404 156.324 150.196C155.769 147.988 157.11 145.745 159.351 145.182C161.559 144.627 163.802 145.968 164.357 148.177ZM167.092 159.058C167.647 161.266 166.306 163.509 164.097 164.064C161.857 164.627 159.614 163.286 159.059 161.077C158.504 158.869 159.846 156.626 162.086 156.063C164.294 155.508 166.537 156.85 167.092 159.058Z" fill="#FC6147"/>
<path d="M205.35 167.72L204.65 169.057C204.503 169.335 204.374 169.439 204.2 169.421C203.764 169.375 195.343 164.223 194.175 162.483C194.071 162.355 193.979 162.11 194.004 161.877L194.174 160.543C194.202 160.282 194.256 160.052 194.533 159.934L205.244 155.922C205.395 155.88 205.515 155.863 205.602 155.872C205.747 155.887 205.825 155.984 205.868 156.135C205.917 156.229 206.464 157.727 206.44 157.959C206.418 158.163 206.286 158.296 206.164 158.342L197.134 161.738C198.382 162.722 204.996 166.889 205.217 167.03C205.382 167.136 205.457 167.261 205.438 167.435C205.429 167.523 205.391 167.607 205.35 167.72Z" fill="#FF3E00"/>
<path d="M242.235 159.356L240.497 162.729C240.344 163.065 239.993 163.322 239.644 163.285C239.528 163.273 239.389 163.199 239.282 163.1C238.805 162.609 237.821 162.181 236.804 162.074C236.048 161.994 233.501 161.901 233.166 165.07C232.96 167.017 234.22 168.444 236.11 168.643C237.36 168.775 238.871 168.377 240.402 167.245C240.595 167.089 240.872 166.971 241.133 166.999C241.337 167.021 241.557 167.161 241.723 167.532C242.142 168.575 242.436 169.135 242.8 170.144C242.868 170.327 242.905 170.537 242.883 170.741C242.847 171.089 242.668 171.394 242.282 171.706C239.691 173.695 236.796 174.389 234.18 174.112C229.354 173.602 225.438 169.779 225.978 164.663C226.666 158.152 232.149 156.056 236.945 156.563C240.172 156.904 242.362 158.429 242.285 159.155C242.279 159.214 242.27 159.301 242.235 159.356Z" fill="#FF3E00"/>
<path d="M266.328 176.892L260.484 176.568L260.425 176.562C260.106 176.528 259.901 176.242 259.906 175.919L260.675 161.686C260.711 161.337 260.972 161.1 261.323 161.108L267.168 161.432L267.226 161.438C267.517 161.468 267.751 161.758 267.72 162.048L266.948 176.31L266.942 176.369C266.911 176.659 266.622 176.893 266.328 176.892ZM268.747 156.778C268.498 159.133 266.377 160.848 264.022 160.6C261.639 160.348 259.923 158.227 260.172 155.872C260.424 153.488 262.545 151.773 264.928 152.025C267.283 152.273 268.999 154.394 268.747 156.778Z" fill="#FF3E00"/>
<path d="M304.189 176.806L302.29 180.309C302 180.837 301.707 181.1 301.271 181.054C301.184 181.045 301.097 181.035 301.013 180.997C296.431 179.572 295.073 176.842 295.705 169.473L293.537 169.126C293.221 169.063 292.99 168.745 293.023 168.425L293.882 163.637C293.945 163.32 294.234 163.086 294.583 163.123L296.431 163.436C296.606 162.337 296.79 161.152 297.009 159.911C297.075 159.565 297.192 159.019 297.947 159.099L298.064 159.111L303.53 159.953C304.021 160.035 304.223 160.35 304.171 160.844C303.984 162.059 303.761 163.329 303.545 164.54L305.538 164.868C305.858 164.902 306.089 165.22 306.052 165.569L305.194 170.358C305.134 170.645 304.874 170.882 304.554 170.849L304.496 170.842L302.586 170.553C302.307 173.198 302.444 175.24 303.665 175.928C303.969 176.107 304.305 176.26 304.272 176.58C304.266 176.638 304.227 176.722 304.189 176.806Z" fill="#FF3E00"/>
<path d="M322.94 171.619L322.798 172.956C322.774 173.189 322.662 173.412 322.533 173.516C321.291 174.708 312.007 178.283 311.28 178.206C311.077 178.184 310.973 178.056 310.887 177.753L310.482 176.299C310.462 176.209 310.446 176.089 310.455 176.002C310.473 175.828 310.573 175.721 310.785 175.655C311.03 175.563 318.369 172.87 319.766 172.166L311.675 166.961C311.535 166.887 311.464 166.733 311.482 166.558C311.491 166.471 311.501 166.384 311.571 166.274C311.759 165.882 312.179 165.25 312.396 164.862C312.499 164.726 312.595 164.648 312.74 164.663C312.828 164.672 312.941 164.714 313.051 164.784L322.533 171C322.809 171.176 322.967 171.358 322.94 171.619Z" fill="#FF3E00"/>
<path d="M213.317 170.777L212.998 170.744C212.358 170.676 212.08 170.529 211.957 170.016L211.035 166.509C211.015 166.419 210.995 166.329 211.001 166.271C211.047 165.835 211.635 165.838 211.984 165.875C213.702 166.027 214.602 165.299 214.675 164.601C214.715 164.223 214.386 163.718 214.035 163.152L213.342 162.197C212.217 160.609 211.825 159.304 211.942 158.199C212.289 154.914 217.212 153.671 221.019 154.073C222.153 154.193 222.432 154.34 222.58 154.885L223.532 158.395C223.577 158.517 223.568 158.604 223.559 158.691C223.525 159.011 223.193 159.094 222.815 159.054L222.699 159.042C220.955 158.857 220.225 159.368 220.163 159.949C220.111 160.443 220.489 161.042 221.465 162.379C222.648 163.974 223.091 165.344 222.975 166.448C222.612 169.878 217.212 171.189 213.317 170.777Z" fill="#FC6147"/>
<path d="M251.571 174.202L245.753 173.91C245.404 173.873 245.138 173.61 245.175 173.261L245.958 158.06C245.995 157.711 246.287 157.448 246.607 157.482L249.997 157.664C251.619 157.335 253.155 157.263 254.609 157.416C255.597 157.521 256.544 157.738 257.423 158.037C257.847 158.199 257.997 158.45 257.96 158.799C257.948 158.915 257.907 159.028 257.862 159.171L256.586 163.18C256.456 163.578 256.144 163.751 255.795 163.714C255.708 163.705 255.594 163.663 255.481 163.622C255.032 163.428 254.547 163.288 254.052 163.236C253.645 163.193 253.232 163.208 252.755 163.275L252.22 173.624L252.214 173.682C252.18 174.002 251.891 174.236 251.571 174.202Z" fill="#FC6147"/>
<path d="M275.137 184.804L269.357 183.87C269.066 183.839 268.832 183.55 268.866 183.23L268.872 183.172L272.461 160.331C272.524 160.014 272.813 159.78 273.104 159.811L273.162 159.817L277.989 160.592C279.288 160.259 280.591 160.161 281.812 160.29C286.928 160.831 291.128 165.037 290.569 170.327C290.01 175.618 285.907 178.564 280.413 177.984C279.192 177.855 278.019 177.554 276.98 177.092L275.838 184.29C275.772 184.636 275.486 184.841 275.137 184.804ZM278.747 165.933L277.813 171.713C278.419 172.1 279.237 172.422 280.051 172.508C280.284 172.532 283.074 172.827 283.412 169.63C283.624 167.624 282.26 166.069 280.225 165.854C279.76 165.805 279.257 165.84 278.747 165.933Z" fill="#FC6147"/>
<path d="M95.6251 48.2C111.225 38.3 132.925 42.9 143.825 58.6C149.125 65.9 151.225 75.1 149.525 84.1C148.825 88.3 147.225 92.3 144.825 95.9C148.325 102.4 149.425 109.9 148.125 117.2C146.625 125.9 141.425 133.6 133.925 138.3L106.425 155.8C90.8252 165.7 69.2251 161.1 58.2251 145.4C53.0251 138.1 50.9251 128.9 52.5251 120C53.2251 115.8 54.8251 111.8 57.2251 108.2C53.7251 101.7 52.6251 94.2 53.9251 86.9C55.4251 78.2 60.6251 70.5 68.1251 65.8L95.6251 48.2Z" fill="#FF3E00"/>
<path d="M95.6251 48.2C111.225 38.3 132.925 42.9 143.825 58.6C149.125 65.9 151.225 75.1 149.525 84.1C148.825 88.3 147.225 92.3 144.825 95.9C148.325 102.4 149.425 109.9 148.125 117.2C146.625 125.9 141.425 133.6 133.925 138.3L106.425 155.8C90.8252 165.7 69.2251 161.1 58.2251 145.4C53.0251 138.1 50.9251 128.9 52.5251 120C53.2251 115.8 54.8251 111.8 57.2251 108.2C53.7251 101.7 52.6251 94.2 53.9251 86.9C55.4251 78.2 60.6251 70.5 68.1251 65.8L95.6251 48.2Z" fill="url(#paint0_linear_3_36)"/>
<path d="M252.676 147.163L253.683 146.939C256.115 146.398 256.945 144.981 257.317 143.49C257.941 140.357 258.854 134.168 258.667 133.329C258.35 131.903 256.756 131.465 255.581 131.726L255.414 131.763C254.845 131.978 254.174 132.127 253.587 132.258C243.1 134.59 237.245 128.849 235.921 122.893C234.764 117.692 237.336 113.422 241.362 112.527C244.886 111.743 247.077 114.073 247.245 114.828C247.506 116.002 246.956 116.301 242.818 118.278C241.783 118.772 241.205 119.341 241.411 120.263C241.485 120.599 244.292 125.697 245.914 128.242C246.474 129.174 247.024 129.668 248.366 129.369C252.691 128.231 258.694 125.928 262.338 123.708C266.914 120.93 267.799 117.387 266.941 113.528C266.325 110.76 261.279 92.4257 240.474 97.0531C221.347 101.307 215.673 115.775 218.341 127.772C221.177 140.523 233.633 151.399 252.676 147.163Z" fill="#FF3E00"/>
<path d="M252.676 147.163L253.683 146.939C256.115 146.398 256.945 144.981 257.317 143.49C257.941 140.357 258.854 134.168 258.667 133.329C258.35 131.903 256.756 131.465 255.581 131.726L255.414 131.763C254.845 131.978 254.174 132.127 253.587 132.258C243.1 134.59 237.245 128.849 235.921 122.893C234.764 117.692 237.336 113.422 241.362 112.527C244.886 111.743 247.077 114.073 247.245 114.828C247.506 116.002 246.956 116.301 242.818 118.278C241.783 118.772 241.205 119.341 241.411 120.263C241.485 120.599 244.292 125.697 245.914 128.242C246.474 129.174 247.024 129.668 248.366 129.369C252.691 128.231 258.694 125.928 262.338 123.708C266.914 120.93 267.799 117.387 266.941 113.528C266.325 110.76 261.279 92.4257 240.474 97.0531C221.347 101.307 215.673 115.775 218.341 127.772C221.177 140.523 233.633 151.399 252.676 147.163Z" fill="url(#paint1_linear_3_36)"/>
<path d="M292.752 151.02L274.497 147.939C273.498 147.771 272.819 146.815 272.988 145.816L285.512 71.6157C285.696 70.5259 286.651 69.8465 287.65 70.0151L305.905 73.0964C306.904 73.265 307.584 74.2204 307.4 75.3102L294.875 149.511C294.707 150.51 293.751 151.189 292.752 151.02Z" fill="#FF3E00"/>
<path d="M292.752 151.02L274.497 147.939C273.498 147.771 272.819 146.815 272.988 145.816L285.512 71.6157C285.696 70.5259 286.651 69.8465 287.65 70.0151L305.905 73.0964C306.904 73.265 307.584 74.2204 307.4 75.3102L294.875 149.511C294.707 150.51 293.751 151.189 292.752 151.02Z" fill="url(#paint2_linear_3_36)"/>
<path d="M344.025 154.75L348.815 143.145C348.907 142.868 348.999 142.592 348.999 142.408C348.999 141.501 348.113 141.111 347.201 140.709C347.094 140.661 346.987 140.614 346.88 140.566C342.828 138.816 341.723 132.461 341.723 124.079L347.801 124.355H347.986C348.999 124.355 349.736 123.526 349.828 122.605L350.933 107.316C350.933 106.211 350.104 105.289 349.091 105.289L342.736 104.921C343.012 101.053 343.288 97 343.473 93.1316C343.473 91.5658 342.736 90.6447 341.17 90.5526L323.762 89.7237H323.394C320.999 89.7237 320.815 91.4737 320.723 92.5789C320.487 95.9505 320.319 99.1886 320.16 102.236L320.16 102.24C320.132 102.771 320.105 103.297 320.078 103.816L314.183 103.447C313.078 103.447 312.249 104.276 312.157 105.289L311.051 120.579C311.051 121.592 311.88 122.513 312.894 122.605L319.801 122.974C320.262 146.276 325.42 154.382 340.249 157.329C340.525 157.421 340.801 157.421 341.078 157.421C342.459 157.421 343.288 156.5 344.025 154.75Z" fill="#FF3E00"/>
<path d="M344.025 154.75L348.815 143.145C348.907 142.868 348.999 142.592 348.999 142.408C348.999 141.501 348.113 141.111 347.201 140.709C347.094 140.661 346.987 140.614 346.88 140.566C342.828 138.816 341.723 132.461 341.723 124.079L347.801 124.355H347.986C348.999 124.355 349.736 123.526 349.828 122.605L350.933 107.316C350.933 106.211 350.104 105.289 349.091 105.289L342.736 104.921C343.012 101.053 343.288 97 343.473 93.1316C343.473 91.5658 342.736 90.6447 341.17 90.5526L323.762 89.7237H323.394C320.999 89.7237 320.815 91.4737 320.723 92.5789C320.487 95.9505 320.319 99.1886 320.16 102.236L320.16 102.24C320.132 102.771 320.105 103.297 320.078 103.816L314.183 103.447C313.078 103.447 312.249 104.276 312.157 105.289L311.051 120.579C311.051 121.592 311.88 122.513 312.894 122.605L319.801 122.974C320.262 146.276 325.42 154.382 340.249 157.329C340.525 157.421 340.801 157.421 341.078 157.421C342.459 157.421 343.288 156.5 344.025 154.75Z" fill="url(#paint3_linear_3_36)"/>
<path d="M393.038 145.158H391.933C371.025 145.158 360.525 130.882 360.525 116.882C360.525 103.711 369.828 89.8947 390.828 89.8947C413.67 89.8947 414.683 110.25 414.683 113.289C414.683 117.526 412.933 121.026 407.499 122.868C403.17 124.342 396.354 125.355 391.565 125.539C390.091 125.539 389.63 124.895 389.262 123.789C388.157 120.75 386.407 114.763 386.407 114.395C386.407 113.382 387.144 112.921 388.341 112.645C393.13 111.539 393.775 111.355 393.775 110.066C393.775 109.237 392.025 106.289 388.157 106.289C383.736 106.289 380.051 110.158 380.051 115.868C380.051 122.408 384.841 129.776 396.354 129.776C396.999 129.776 397.736 129.776 398.38 129.684H398.565C399.854 129.684 401.42 130.513 401.42 132.079C401.42 133 399.025 139.263 397.644 142.395C396.907 143.868 395.709 145.158 393.038 145.158Z" fill="#FF3E00"/>
<path d="M393.038 145.158H391.933C371.025 145.158 360.525 130.882 360.525 116.882C360.525 103.711 369.828 89.8947 390.828 89.8947C413.67 89.8947 414.683 110.25 414.683 113.289C414.683 117.526 412.933 121.026 407.499 122.868C403.17 124.342 396.354 125.355 391.565 125.539C390.091 125.539 389.63 124.895 389.262 123.789C388.157 120.75 386.407 114.763 386.407 114.395C386.407 113.382 387.144 112.921 388.341 112.645C393.13 111.539 393.775 111.355 393.775 110.066C393.775 109.237 392.025 106.289 388.157 106.289C383.736 106.289 380.051 110.158 380.051 115.868C380.051 122.408 384.841 129.776 396.354 129.776C396.999 129.776 397.736 129.776 398.38 129.684H398.565C399.854 129.684 401.42 130.513 401.42 132.079C401.42 133 399.025 139.263 397.644 142.395C396.907 143.868 395.709 145.158 393.038 145.158Z" fill="url(#paint4_linear_3_36)"/>
<path d="M176.981 146.17L186.251 146.952C187.903 147.091 189.517 146.581 190.497 145.924C202.607 137.148 215.475 105.143 215.599 103.674C215.707 102.389 214.958 101.402 212.902 100.581L200.921 95.7806C200.21 95.4433 199.575 95.2973 198.933 95.2431C197.74 95.1425 196.775 95.6157 196.124 96.7624C195.923 97.1523 195.36 98.3171 194.569 99.9538C192.304 104.638 188.169 113.189 185.324 118.497C185.002 119.024 184.803 119.193 184.528 119.169C184.344 119.154 184.084 118.947 183.94 118.473L175.573 94.9359C175.192 93.9794 174.328 93.2595 172.951 93.1433C171.024 92.9807 158.583 96.9222 156.295 97.746C155.247 98.1197 154.642 98.7157 154.557 99.7252C154.502 100.368 154.624 101.117 155.005 102.074L172.662 143.679C173.524 145.508 175.145 146.015 176.981 146.17Z" fill="#FF3E00"/>
<path d="M176.981 146.17L186.251 146.952C187.903 147.091 189.517 146.581 190.497 145.924C202.607 137.148 215.475 105.143 215.599 103.674C215.707 102.389 214.958 101.402 212.902 100.581L200.921 95.7806C200.21 95.4433 199.575 95.2973 198.933 95.2431C197.74 95.1425 196.775 95.6157 196.124 96.7624C195.923 97.1523 195.36 98.3171 194.569 99.9538C192.304 104.638 188.169 113.189 185.324 118.497C185.002 119.024 184.803 119.193 184.528 119.169C184.344 119.154 184.084 118.947 183.94 118.473L175.573 94.9359C175.192 93.9794 174.328 93.2595 172.951 93.1433C171.024 92.9807 158.583 96.9222 156.295 97.746C155.247 98.1197 154.642 98.7157 154.557 99.7252C154.502 100.368 154.624 101.117 155.005 102.074L172.662 143.679C173.524 145.508 175.145 146.015 176.981 146.17Z" fill="url(#paint5_linear_3_36)"/>
<path d="M92.9251 146.9C84.0251 149.2 74.7251 145.7 69.5251 138.2C66.3251 133.8 65.1251 128.3 66.0251 122.9C66.2251 122 66.4251 121.2 66.6251 120.3L67.1251 118.7L68.5251 119.7C71.8251 122.1 75.4251 123.9 79.3251 125.1L80.3251 125.4L80.2251 126.4C80.1251 127.8 80.5251 129.3 81.3251 130.5C82.9251 132.8 85.7251 133.9 88.4251 133.2C89.0251 133 89.6251 132.8 90.1251 132.5L117.525 115C118.925 114.1 119.825 112.8 120.125 111.2C120.425 109.6 120.025 107.9 119.125 106.6C117.525 104.3 114.725 103.3 112.025 104C111.425 104.2 110.825 104.4 110.325 104.7L99.8251 111.4C98.1251 112.5 96.2251 113.3 94.2251 113.8C85.3251 116.1 76.0251 112.6 70.8251 105.1C67.7251 100.7 66.4251 95.2 67.4251 89.8C68.3251 84.6 71.5251 79.9 76.0251 77.1L103.525 59.6C105.225 58.5 107.125 57.7 109.125 57.1C118.025 54.8 127.325 58.3 132.525 65.8C135.725 70.2 136.925 75.7 136.025 81.1C135.825 82 135.625 82.8 135.325 83.7L134.825 85.3L133.425 84.3C130.125 81.9 126.525 80.1 122.625 78.9L121.625 78.6L121.725 77.6C121.825 76.2 121.425 74.7 120.625 73.5C119.025 71.2 116.225 70.2 113.525 70.9C112.925 71.1 112.325 71.3 111.825 71.6L84.4251 89.1C83.0251 90 82.1251 91.3 81.8251 92.9C81.5251 94.5 81.9251 96.2 82.8251 97.5C84.4251 99.8 87.2251 100.8 89.9251 100.1C90.5251 99.9 91.1251 99.7 91.6251 99.4L102.125 92.7C103.825 91.6 105.725 90.8 107.725 90.2C116.625 87.9 125.925 91.4 131.125 98.9C134.325 103.3 135.525 108.8 134.625 114.2C133.725 119.4 130.525 124.1 126.025 126.9L98.5251 144.4C96.8251 145.5 94.9251 146.3 92.9251 146.9Z" fill="white"/>
<path d="M338.257 78.9694L330.104 73.5274C329.867 73.3721 329.665 73.2813 329.467 73.2895C329.236 73.2991 329.042 73.4062 328.818 73.5807L321.111 79.68C320.823 79.8902 320.563 80 320.365 80.0082C320.102 80.0191 319.93 79.8611 319.915 79.4984C319.908 79.3336 319.933 79.1344 319.989 78.9008L322.662 69.2779C322.692 69.2106 322.688 69.1117 322.684 69.0128C322.674 68.782 322.565 68.5223 322.327 68.367L313.973 62.8342C313.599 62.5855 313.389 62.2969 313.379 62.0661C313.367 61.7694 313.72 61.5235 314.38 61.4962L324.403 61.0808C324.832 61.063 325.021 60.857 325.105 60.4902L327.811 50.8659C327.985 50.2972 328.205 50.0238 328.469 50.0129C328.733 50.002 329.008 50.2548 329.196 50.8085L332.689 60.1759C332.803 60.5345 333.009 60.7241 333.437 60.7063L343.461 60.2909C344.12 60.2636 344.492 60.4793 344.505 60.7761C344.514 61.0069 344.329 61.3118 343.977 61.5906L336.109 67.7958C335.885 67.9702 335.797 68.2381 335.807 68.4689C335.811 68.5678 335.815 68.6667 335.851 68.7313L339.311 78.1C339.386 78.3281 339.427 78.5246 339.434 78.6894C339.449 79.0521 339.291 79.2238 339.027 79.2347C338.829 79.2429 338.562 79.155 338.257 78.9694Z" fill="#FC6147"/>
<path d="M351.864 56.6793L402.554 53.2654" stroke="#FC6147" stroke-width="3" stroke-linecap="round"/>
<path d="M352.983 66.3337L387.415 63.7925" stroke="#FC6147" stroke-width="3" stroke-linecap="round"/>
<path d="M355.06 75.5903L417.854 70.898" stroke="#FC6147" stroke-width="3" stroke-linecap="round"/>
<path d="M378.505 149.78L365.288 146.104C364.211 145.804 363.095 146.435 362.796 147.512C362.496 148.589 363.126 149.705 364.204 150.005L372.712 152.371L359.169 160.02C358.195 160.57 357.852 161.805 358.402 162.778C358.952 163.752 360.186 164.095 361.16 163.545L374.703 155.896L372.337 164.404C372.037 165.481 372.667 166.597 373.745 166.897C374.822 167.197 375.938 166.566 376.237 165.489L379.913 152.272C380.212 151.195 379.582 150.079 378.505 149.78Z" fill="#FF3E00" stroke="#FF3E00"/>
<mask id="path-14-outside-1_3_36" maskUnits="userSpaceOnUse" x="324.708" y="162.462" width="31.4586" height="32.1261" fill="black">
<rect fill="white" x="324.708" y="162.462" width="31.4586" height="32.1261"/>
<path fill-rule="evenodd" clip-rule="evenodd" d="M330.962 182.865L333.535 169.39C333.693 168.563 334.491 168.021 335.318 168.179L348.793 170.752C349.62 170.91 350.162 171.708 350.004 172.535C349.847 173.362 349.048 173.904 348.221 173.746L338.361 171.863L347.78 185.728C348.253 186.424 348.072 187.372 347.375 187.845C346.679 188.318 345.731 188.137 345.258 187.441L335.839 173.576L333.956 183.437C333.799 184.263 333 184.806 332.173 184.648C331.346 184.49 330.804 183.692 330.962 182.865Z"/>
</mask>
<path fill-rule="evenodd" clip-rule="evenodd" d="M330.962 182.865L333.535 169.39C333.693 168.563 334.491 168.021 335.318 168.179L348.793 170.752C349.62 170.91 350.162 171.708 350.004 172.535C349.847 173.362 349.048 173.904 348.221 173.746L338.361 171.863L347.78 185.728C348.253 186.424 348.072 187.372 347.375 187.845C346.679 188.318 345.731 188.137 345.258 187.441L335.839 173.576L333.956 183.437C333.799 184.263 333 184.806 332.173 184.648C331.346 184.49 330.804 183.692 330.962 182.865Z" fill="#FE755D"/>
<path d="M333.535 169.39L332.553 169.202L332.553 169.202L333.535 169.39ZM330.962 182.865L329.98 182.677L329.98 182.677L330.962 182.865ZM335.318 168.179L335.506 167.196L335.506 167.196L335.318 168.179ZM348.793 170.752L348.606 171.734L348.606 171.734L348.793 170.752ZM348.221 173.746L348.409 172.764L348.409 172.764L348.221 173.746ZM338.361 171.863L338.549 170.881L336.177 170.428L337.534 172.425L338.361 171.863ZM347.78 185.728L348.607 185.166L347.78 185.728ZM345.258 187.441L346.085 186.879L346.085 186.879L345.258 187.441ZM335.839 173.576L336.667 173.014L335.31 171.017L334.857 173.389L335.839 173.576ZM333.956 183.437L332.974 183.249L332.974 183.249L333.956 183.437ZM332.553 169.202L329.98 182.677L331.944 183.052L334.517 169.577L332.553 169.202ZM335.506 167.196C334.136 166.935 332.814 167.833 332.553 169.202L334.517 169.577C334.572 169.293 334.846 169.107 335.131 169.161L335.506 167.196ZM348.981 169.77L335.506 167.196L335.131 169.161L348.606 171.734L348.981 169.77ZM350.987 172.722C351.248 171.353 350.35 170.031 348.981 169.77L348.606 171.734C348.89 171.788 349.077 172.063 349.022 172.347L350.987 172.722ZM348.034 174.728C349.403 174.99 350.725 174.092 350.987 172.722L349.022 172.347C348.968 172.632 348.693 172.818 348.409 172.764L348.034 174.728ZM338.173 172.846L348.034 174.728L348.409 172.764L338.549 170.881L338.173 172.846ZM348.607 185.166L339.188 171.301L337.534 172.425L346.952 186.29L348.607 185.166ZM347.937 188.672C349.09 187.889 349.39 186.319 348.607 185.166L346.952 186.29C347.115 186.529 347.053 186.855 346.813 187.018L347.937 188.672ZM344.431 188.003C345.214 189.156 346.784 189.456 347.937 188.672L346.813 187.018C346.574 187.181 346.248 187.119 346.085 186.879L344.431 188.003ZM335.012 174.138L344.431 188.003L346.085 186.879L336.667 173.014L335.012 174.138ZM334.939 183.624L336.822 173.764L334.857 173.389L332.974 183.249L334.939 183.624ZM331.986 185.63C333.355 185.892 334.677 184.994 334.939 183.624L332.974 183.249C332.92 183.533 332.645 183.72 332.361 183.666L331.986 185.63ZM329.98 182.677C329.718 184.047 330.616 185.369 331.986 185.63L332.361 183.666C332.076 183.611 331.89 183.337 331.944 183.052L329.98 182.677Z" fill="#FE755D" mask="url(#path-14-outside-1_3_36)"/>
</g>
<defs>
<linearGradient id="paint0_linear_3_36" x1="197.025" y1="168.5" x2="212.025" y2="60" gradientUnits="userSpaceOnUse">
<stop stop-color="#FF3E00"/>
<stop offset="1" stop-color="#FF5335"/>
</linearGradient>
<linearGradient id="paint1_linear_3_36" x1="197.025" y1="168.5" x2="212.025" y2="60" gradientUnits="userSpaceOnUse">
<stop stop-color="#FF3E00"/>
<stop offset="1" stop-color="#FF5335"/>
</linearGradient>
<linearGradient id="paint2_linear_3_36" x1="197.025" y1="168.5" x2="212.025" y2="60" gradientUnits="userSpaceOnUse">
<stop stop-color="#FF3E00"/>
<stop offset="1" stop-color="#FF5335"/>
</linearGradient>
<linearGradient id="paint3_linear_3_36" x1="197.025" y1="168.5" x2="212.025" y2="60" gradientUnits="userSpaceOnUse">
<stop stop-color="#FF3E00"/>
<stop offset="1" stop-color="#FF5335"/>
</linearGradient>
<linearGradient id="paint4_linear_3_36" x1="197.025" y1="168.5" x2="212.025" y2="60" gradientUnits="userSpaceOnUse">
<stop stop-color="#FF3E00"/>
<stop offset="1" stop-color="#FF5335"/>
</linearGradient>
<linearGradient id="paint5_linear_3_36" x1="197.025" y1="168.5" x2="212.025" y2="60" gradientUnits="userSpaceOnUse">
<stop stop-color="#FF3E00"/>
<stop offset="1" stop-color="#FF5335"/>
</linearGradient>
<clipPath id="clip0_3_36">
<rect width="483" height="239" fill="white"/>
</clipPath>
</defs>
</svg>
